<svg xmlns="http://www.w3.org/2000/svg" width="20.871" height="16.642" viewBox="0 0 20.871 16.642"><path d="M16.692,6.338l-.267.466a.4.4,0,0,1-.492.176,3.6,3.6,0,0,1-1.047-.607.405.405,0,0,1-.091-.512l.267-.466a2.815,2.815,0,0,1-.519-.894H14a.4.4,0,0,1-.4-.336,3.674,3.674,0,0,1,0-1.21.405.405,0,0,1,.4-.339h.538a2.815,2.815,0,0,1,.519-.894l-.267-.466a.4.4,0,0,1,.091-.512A3.647,3.647,0,0,1,15.932.138a.4.4,0,0,1,.492.176l.267.466a2.9,2.9,0,0,1,1.034,0l.267-.466a.4.4,0,0,1,.492-.176,3.6,3.6,0,0,1,1.047.607.405.405,0,0,1,.091.512l-.267.466a2.815,2.815,0,0,1,.519.894h.538a.4.4,0,0,1,.4.336,3.674,3.674,0,0,1,0,1.21.405.405,0,0,1-.4.339h-.538a2.815,2.815,0,0,1-.519.894l.267.466a.4.4,0,0,1-.091.512,3.647,3.647,0,0,1-1.047.607.4.4,0,0,1-.492-.176l-.267-.466A2.9,2.9,0,0,1,16.692,6.338ZM16.35,4.42A1.218,1.218,0,0,0,18.072,2.7,1.218,1.218,0,0,0,16.35,4.42ZM12.59,9.439l1.1.548a.784.784,0,0,1,.342.949,7.7,7.7,0,0,1-1.389,2.146.78.78,0,0,1-.988.173l-.949-.548a5.6,5.6,0,0,1-1.79,1.034v1.1a.78.78,0,0,1-.642.77,7.334,7.334,0,0,1-2.475,0,.783.783,0,0,1-.652-.77v-1.1a5.664,5.664,0,0,1-1.79-1.034l-.949.545a.78.78,0,0,1-.988-.173A7.688,7.688,0,0,1,.04,10.936a.787.787,0,0,1,.342-.949l1.086-.548a5.65,5.65,0,0,1,0-2.068L.382,6.821A.778.778,0,0,1,.04,5.875,7.657,7.657,0,0,1,1.416,3.729.78.78,0,0,1,2.4,3.556l.949.548A5.6,5.6,0,0,1,5.144,3.07v-1.1A.777.777,0,0,1,5.783,1.2a7.438,7.438,0,0,1,2.479,0,.783.783,0,0,1,.652.77v1.1A5.664,5.664,0,0,1,10.7,4.1l.949-.548a.78.78,0,0,1,.988.173,7.647,7.647,0,0,1,1.373,2.146.78.78,0,0,1-.326.949l-1.1.548A5.668,5.668,0,0,1,12.59,9.439Zm-3.835.688A2.439,2.439,0,0,0,5.307,6.68,2.439,2.439,0,0,0,8.754,10.128Zm7.938,5.958-.267.466a.4.4,0,0,1-.492.176,3.6,3.6,0,0,1-1.047-.607.405.405,0,0,1-.091-.512l.267-.466a2.815,2.815,0,0,1-.519-.894H14a.4.4,0,0,1-.4-.336,3.674,3.674,0,0,1,0-1.21.405.405,0,0,1,.4-.339h.538a2.815,2.815,0,0,1,.519-.894L14.794,11a.4.4,0,0,1,.091-.512,3.647,3.647,0,0,1,1.047-.607.4.4,0,0,1,.492.176l.267.466a2.9,2.9,0,0,1,1.034,0l.267-.466a.4.4,0,0,1,.492-.176,3.6,3.6,0,0,1,1.047.607.405.405,0,0,1,.091.512l-.267.466a2.815,2.815,0,0,1,.519.894h.538a.4.4,0,0,1,.4.336,3.674,3.674,0,0,1,0,1.21.405.405,0,0,1-.4.339h-.538a2.815,2.815,0,0,1-.519.894l.267.466a.4.4,0,0,1-.091.512,3.647,3.647,0,0,1-1.047.607.4.4,0,0,1-.492-.176l-.267-.466A2.9,2.9,0,0,1,16.692,16.086Zm-.342-1.921a1.218,1.218,0,0,0,1.722-1.722A1.218,1.218,0,0,0,16.35,14.165Z" transform="translate(0.009 -0.112)"/></svg>