<svg xmlns="http://www.w3.org/2000/svg" width="20.386" height="43.487" viewBox="0 0 20.386 43.487"><defs><style>.a{fill:#fff;opacity:0.8;}</style></defs><path class="a" d="M18.183,0a5.436,5.436,0,1,1-5.436,5.436A5.436,5.436,0,0,1,18.183,0M28.314,30.082,24.237,13.775a2.038,2.038,0,0,0-1.978-1.544h-.965a7.464,7.464,0,0,1-6.224,0h-.965a2.038,2.038,0,0,0-1.978,1.544L8.052,30.082a2.039,2.039,0,0,0,1.978,2.533h4.756v8.833a2.038,2.038,0,0,0,2.038,2.038h2.718a2.038,2.038,0,0,0,2.038-2.038V32.615h4.756a2.039,2.039,0,0,0,1.978-2.533Z" transform="translate(-7.99)"/></svg>