<svg xmlns="http://www.w3.org/2000/svg" width="16.308" height="43.487" viewBox="0 0 16.308 43.487"><defs><style>.a{fill:#fff;opacity:0.8;}</style></defs><path class="a" d="M8.154,0A5.436,5.436,0,1,1,2.718,5.436,5.436,5.436,0,0,1,8.154,0m4.077,12.231h-.965a7.464,7.464,0,0,1-6.224,0H4.077A4.077,4.077,0,0,0,0,16.308V27.859A2.038,2.038,0,0,0,2.038,29.9H3.4V41.448a2.038,2.038,0,0,0,2.038,2.038h5.436a2.038,2.038,0,0,0,2.038-2.038V29.9h1.359a2.038,2.038,0,0,0,2.038-2.038V16.308A4.077,4.077,0,0,0,12.231,12.231Z"/></svg>