<svg xmlns="http://www.w3.org/2000/svg" width="309.15" height="174.514" viewBox="0 0 309.15 174.514"><g transform="translate(-29.799 -157.747)"><path d="M-7.1,5.343,8.247.5l3.92,14.229,6.081,6.754L17.226,34.59.745,35.829Z" transform="translate(316.224 229.551) rotate(42)" fill="#e8c2aa"/><path d="M0,30.486l15.346,4.847L19.266,21.1l6.081-6.754L24.325,1.238,7.844,0Z" transform="translate(76.043 281.629) rotate(100)" fill="#e8c2aa"/><rect width="12" height="7" transform="matrix(0.777, 0.629, -0.629, 0.777, 294.871, 257.892)" fill="#e8c2aa"/><rect width="12" height="7" transform="translate(80.622 293.161) rotate(103)" fill="#e8c2aa"/><g transform="translate(-52 1)"><path d="M11.322-5.218l-4.16,17.1,51.052,23.1,4.342-3.3Z" transform="translate(261.958 270.229)" fill="#a3b457"/><path d="M3.563-1.477.588,50.343l.249,7.11L22.758,3.082Z" transform="translate(256.125 269.628)" fill="#b8cb62"/><path d="M39.708,8.61,5.435-3.767l8.583,25h19.24Z" transform="translate(245.592 251.558)" fill="#b8cb62"/><path d="M11.591-3.105H43.356L31.687,55.158l-20.1,4.177Z" transform="translate(225.291 271.926)" fill="#b8cb62"/><path d="M33.435-3.105,13.581-.059l4.666,54.988,15.188,4.246Z" transform="translate(203.447 272.086)" fill="#abbc5f"/><path d="M0,0H48.69l.189,42.485L39,61.808,25.823,64.251,8.676,59.334,0,39.206Z" transform="translate(204.022 204.387) rotate(-16)" fill="#efccb6"/><path d="M0,0H7.213V43.016H0V0Z" transform="translate(225.207 199.271) rotate(-17)" fill="#efd5c5"/><path d="M7.093,0,21.169,15.565,0,13.745Z" transform="translate(222.267 207.742) rotate(25)" fill="#e8c2aa"/><path d="M7.5,0,18.986,15.194,0,14.3Z" transform="matrix(0.342, 0.94, -0.94, 0.342, 248.982, 203.856)" fill="#e8c2aa"/><path d="M0,0H48.69V21.64L25.711,11.386,0,21.64Z" transform="translate(204.022 204.387) rotate(-16)" fill="#efd5c5"/><path d="M1.31,1.1,2.888,0S10.005,5.317,9.1,5.306s-6.209,0-6.209,0L0,5.388Z" transform="translate(233.46 236.123) rotate(-17)" fill="#efd5c5"/><path d="M4.114,0,14.7,2.785,0,2.838Z" transform="translate(235.837 205.563) rotate(8)" fill="#8b705f"/><path d="M4.436,3.184,15.56.038,0,0Z" transform="translate(228.575 210.292) rotate(142)" fill="#8b705f"/><path d="M.087,2.025,3.714,0H18.033l2.944,1.278.182,1L0,3.063Z" transform="translate(231.888 248.258) rotate(-14)" fill="#4c3426"/><ellipse cx="1.803" cy="3.607" rx="1.803" ry="3.607" transform="translate(224.231 219.015) rotate(-13)"/><ellipse cx="1.803" cy="3.607" rx="1.803" ry="3.607" transform="translate(240.742 213.393) rotate(-8)"/><path d="M1.473,1.055,7,0l.146,39.439L15.711,59.55,0,35.615Z" transform="translate(197.235 206.114) rotate(-16)" fill="#e8c2aa"/><path d="M18.184,0l7.077,31.024L0,27.181Z" transform="translate(218.468 181.712) rotate(-42)" fill="#695142"/><path d="M22.952,0l22,24.107-27.8,24.827L0,44.269Z" transform="translate(212.976 156.747) rotate(34)" fill="#8b705f"/><path d="M3,0,14.953,13.208l4,8.165L0,19.537Z" transform="translate(185.281 193.418) rotate(1)" fill="#826857"/><path d="M-.227-1.151,18.667,1.066l-2.037,3.3L21.992,26.49Z" transform="translate(185.14 213.985)" fill="#8b705f"/><path d="M2.117-.33,8.685,3.675,10.339,14.8l-2.572.472L.731,7.693-.582,2.339Z" transform="translate(195.675 218.252)" fill="#efd5c5"/><path d="M7.168,0l1.8,3.324L0,1.679Z" transform="translate(201.409 230.627) rotate(-120)" fill="#847165"/><path d="M20.672,7.659H38.463l12.171-5.9-12.171,16H20.672L-.959-10.922Z" transform="translate(207.996 251.22)" fill="#d4b19b"/><path d="M11.594,20.151,37.979,1.137l5.8,12L33.288,26.3l-5.625,1.612Z" transform="translate(178.407 251.891)" fill="#b8cb62"/><path d="M35.347-6.339,51.725,1.536,23.4,25.259,6.775,27.481Z" transform="translate(154.698 278.345)" fill="#c4d57a"/><path d="M49.412.964l11.2,9.309L19.808,35.812,9.469,33.1Z" transform="translate(156.863 278.802)" fill="#a3b457"/><path d="M10.071-10.953,3.7,1.883l43.732,27.8,4.951-8.24Z" transform="translate(275.092 271.032)" fill="#c4d57a"/><path d="M-1.605,2.089,3.747,0l38.39,29.713L31.262,27.249Z" transform="translate(126.233 301.938) rotate(-17)" fill="#a9bb56"/><path d="M11.635-3.389l4.427,55.268h0L.588,4.461Z" transform="translate(205.632 275.305)" fill="#abbc5f"/><path d="M65.171,9.507,61.558,4.216,32.938,46.869l8.852-2.73Z" transform="translate(288.421 259.774)" fill="#a9bb56"/><path d="M6.041-2.037,26.1,14.332l-24.189,4.5Z" transform="translate(210.305 254.751)" fill="#c4d57a"/><path d="M23.04-1.924,1.915,14.241,25.7,15.1Z" transform="translate(235.552 254.842)" fill="#c4d57a"/><path d="M0,9.693,3.376,0,44.8,23.557l-.6,13.5-5.72,2.413Z" transform="translate(126.905 291.651) rotate(-17)" fill="#b8cb62"/><path d="M54.9,5.655,46.258,2.608,19.9,32.364l.6,13.5,5.72,2.413Z" transform="translate(295.147 258.482)" fill="#b8cb62"/><rect width="3.607" height="3.607" transform="translate(240.191 278.713) rotate(43)" fill="#495b00"/><rect width="3.607" height="3.607" transform="translate(240.191 294.943) rotate(43)" fill="#495b00"/><rect width="3.607" height="3.607" transform="translate(240.191 311.173) rotate(43)" fill="#495b00"/></g><g transform="matrix(0.819, 0.574, -0.574, 0.819, 296.842, 236.644)" fill="none" stroke="#f2b760" stroke-width="1"><ellipse cx="12.5" cy="4.5" rx="12.5" ry="4.5" stroke="none"/><ellipse cx="12.5" cy="4.5" rx="12" ry="4" fill="none"/></g><g transform="matrix(0.891, 0.454, -0.454, 0.891, 140.057, -126.028)"><rect width="24" height="3" transform="translate(327 258)" fill="#f2b760"/><path d="M0,0V8" transform="translate(348.264 250.517)" fill="none" stroke="#f2b760" stroke-width="1"/><path d="M.179,0,.057,9.358" transform="translate(350.753 251.634)" fill="none" stroke="#f2b760" stroke-width="1"/><line y2="6" transform="translate(342.246 253.442)" fill="none" stroke="#f2b760" stroke-width="1"/><line x1="0.213" y2="4.613" transform="translate(345.827 255.249)" fill="none" stroke="#f2b760" stroke-width="1"/><path d="M-.037,1.413l.109,8.85" transform="translate(349.118 249.111)" fill="none" stroke="#f2b760" stroke-width="1"/></g><circle cx="1.5" cy="1.5" r="1.5" transform="translate(312 252)" fill="#f2b760"/><path d="M11.735,11.577l1.3,3.6L3.763,18.116,5.979,24.98,2.823,32.3l-6.4-5.491-.784-8.236L1.322,14Z" transform="translate(296 230)" fill="#efd5c5"/><g transform="translate(29.68 279.644)"><g transform="matrix(-0.819, 0.574, -0.574, -0.819, 47.388, 7.372)" fill="none" stroke="#f2b760" stroke-width="1"><ellipse cx="12.5" cy="4.5" rx="12.5" ry="4.5" stroke="none"/><ellipse cx="12.5" cy="4.5" rx="12" ry="4" fill="none"/></g><g transform="matrix(-0.891, 0.454, -0.454, -0.891, 26.143, 18.336)"><rect width="24" height="3" transform="translate(0 0)" fill="#f2b760"/><path d="M0,8V0" transform="translate(21.264 2.483)" fill="none" stroke="#f2b760" stroke-width="1"/><path d="M.122,9.358,0,0" transform="translate(23.81 0.008)" fill="none" stroke="#f2b760" stroke-width="1"/><line y1="6" transform="translate(15.246 1.558)" fill="none" stroke="#f2b760" stroke-width="1"/><line x1="0.213" y1="4.613" transform="translate(18.827 1.138)" fill="none" stroke="#f2b760" stroke-width="1"/><path d="M0,8.85.109,0" transform="translate(22.081 1.626)" fill="none" stroke="#f2b760" stroke-width="1"/></g><ellipse cx="1.5" cy="1.5" rx="1.5" ry="1.5" transform="translate(24.068 15.356)" fill="#f2b760"/></g><path d="M-3.06,11.577l-1.3,3.6,9.275,2.941L2.695,24.98,5.852,32.3l6.4-5.491.784-8.236L7.352,14Z" transform="matrix(0.788, -0.616, 0.616, 0.788, 48.904, 275.643)" fill="#efd5c5"/></g></svg>