<svg xmlns="http://www.w3.org/2000/svg" width="366.139" height="340.385" viewBox="0 0 366.139 340.385"><defs><style>.a{fill:#c3bdb3;}.b{fill:#3b3a3a;}.c{fill:#514f4f;}.d{fill:#432e21;}.e{fill:#5d4230;}.f{fill:#264f53;}.g{fill:#549299;}.h{fill:#3a6b70;}.i{fill:#e8c2aa;}.j{fill:#ca8a2a;}.k{fill:#d29131;}.l{fill:#d89b3f;}.m{fill:#dfa245;}.n{fill:#efccb6;}.o{fill:#efd5c5;}.p{fill:#8b705f;}.q{fill:#3c3434;}.r{fill:#695142;}.s{fill:#826857;}.t{fill:#847165;}.u{fill:#d4b19b;}.v{fill:#d59537;}.w{fill:#e2ab58;}.x{fill:#58401e;}.y{fill:#183c40;}.z{fill:#4f6126;}.aa{fill:#667f2e;}.ab{fill:#83a23d;}.ac{fill:#a2be61;}.ad{fill:#5e493d;}.ae{fill:#445420;}.af{fill:#a8c95c;}.ag{fill:#61a8b0;}.ah{fill:#f6e7d1;}.ai{fill:#fcf2e2;}.aj{fill:#e3d3bb;}.ak{fill:#e8d8c0;}.al{fill:#f0e0c9;}.am{fill:#f2e3ce;}.an{fill:#f7e8d4;}.ao{fill:#fdf1e0;}.ap{fill:none;stroke:#367a7a;}.aq{fill:#6f7e30;}.ar{fill:#dc9c3d;}.as{fill:#e7cdbc;}.at{fill:#3c8087;}.au{fill:#0e2e31;}</style></defs><g transform="translate(-21.453 -647.785)"><path class="a" d="M294.481-123.215h18.111L193.211,217.17H-48.5Z" transform="translate(75 771)"/><g transform="translate(4 75)"><path d="M-8.193,2.5-4.18-5.568l.6-.026L-8.133,3.749Z" transform="translate(190.683 792.736) rotate(-22)"/><path class="b" d="M5.029,2.785,3.156.253V-.636L5.029,1.255Z" transform="translate(174.466 800.469) rotate(-22)"/><path class="c" d="M1.691.626l4.815-.1v-1.3L1.691-.9Z" transform="translate(178.331 801.214) rotate(-22)"/><path class="d" d="M-6.858,3.5-.126-1.8l3.538.21L-.2,5.5l-4.808-.127Z" transform="translate(182.198 792.893) rotate(-22)"/><path class="e" d="M-9.312,4.648-2.559-2.32l1.583.3L-4.5,4.732Z" transform="translate(186.473 791.998) rotate(-22)"/><path class="f" d="M8.167-.98,21.895.614,30.1,66.538,24.27,68.9Z" transform="translate(156 724)"/><path class="g" d="M2.075,2.2,15.45-1.138,14.31,4.456,4.728,51.137-7.284,55.915Z" transform="matrix(0.996, 0.087, -0.087, 0.996, 169.762, 722.682)"/><path class="h" d="M1.113,2.781,12.972-2.987,14.31,4.456,14.47,51.7,5.6,51.256Z" transform="matrix(0.996, 0.087, -0.087, 0.996, 156.762, 774.682)"/><path class="i" d="M3.083,9.206,7.6,11.7,10.292,6.38,11.341.644,7.023-2.328Z" transform="translate(144.955 744.95) rotate(-15)"/><path class="i" d="M2.538-1.666l5.17.645L7.209,1.2,7.06,5.508l1.96,5.156-.5,2.135L3.449,15.391,1.873,12.9,1.487,6.478Z" transform="matrix(-0.966, -0.259, 0.259, -0.966, 207.306, 760.449)"/><rect class="i" width="6.766" height="4.53" transform="matrix(-0.999, 0.052, -0.052, -0.999, 208.813, 747.379)"/><path class="i" d="M-.826.179l5.652-1L5.54,3.232H0Z" transform="translate(151.207 739.828) rotate(10)"/><path class="j" d="M9.4-5.218,7.163,3.858l27.5,12.26L37,14.367Z" transform="translate(187.584 680.315) rotate(48)"/><path class="k" d="M2.513-1.477.588,32.058l.161,4.6L14.935,1.473Z" transform="translate(185.362 686.317)"/><path class="l" d="M27.615,4.243,5.435-3.767l5.554,16.175H23.44Z" transform="translate(176.836 675.432)"/><path class="l" d="M11.591-3.105H32.147L24.6,34.6,11.591,37.3Z" transform="translate(161.526 688.379)"/><path class="m" d="M26.429-3.105,13.581-1.134,16.6,34.451,26.429,37.2Z" transform="translate(146.687 688.483)"/><path class="n" d="M0,0H31.509l.122,27.494L25.235,40l-8.524,1.581L5.614,38.4,0,25.371Z" transform="translate(151.852 643.576) rotate(-16)"/><path class="o" d="M0,0H4.668V27.837H0V0Z" transform="translate(165.562 640.266) rotate(-17)"/><path class="i" d="M4.59,0,13.7,10.072-2.226,7.836Z" transform="translate(163.659 645.748) rotate(25)"/><path class="i" d="M1.342-.534,12.287,9.833,0,9.255Z" transform="matrix(0.342, 0.94, -0.94, 0.342, 180.947, 643.233)"/><path class="o" d="M0,0H31.509l.05,8.5L16.638,7.368.046,9.075Z" transform="translate(151.852 643.576) rotate(-16)"/><path class="o" d="M.848.714,1.869,0S6.475,3.441,5.891,3.434s-4.018,0-4.018,0L0,3.487Z" transform="translate(170.902 664.114) rotate(-17)"/><path class="p" d="M2.433-.76,9.24-2.006-.241,1.324Z" transform="translate(172.44 644.338) rotate(8)"/><path class="p" d="M2.59,2.664l7.175.452L-.1.358Z" transform="translate(167.741 647.397) rotate(142)"/><path class="q" d="M4.752,1.42,5.309.073,8.347.067,8.674,1.52l-1.051.745L6.056,2.2Z" transform="translate(170.034 672.564) rotate(-14)"/><ellipse cx="1.167" cy="2.334" rx="1.167" ry="2.334" transform="translate(164.93 653.043) rotate(-13)"/><ellipse cx="1.167" cy="2.334" rx="1.167" ry="2.334" transform="translate(175.615 649.405) rotate(-8)"/><path class="i" d="M.953.683,4.53,0l.095,25.522,5.543,13.014L0,23.048Z" transform="translate(147.459 644.694) rotate(-16)"/><path class="r" d="M11.767,0l4.58,20.077L0,17.589Z" transform="translate(161.2 628.902) rotate(-42)"/><path class="p" d="M14.853,0,29.091,15.6,11.1,31.667,0,28.648Z" transform="translate(157.646 612.747) rotate(34)"/><path class="s" d="M1.943,0,9.677,8.548l2.588,5.284L0,12.643Z" transform="translate(139.724 636.478) rotate(1)"/><path class="p" d="M-.227-1.151,12,.283,10.681,2.417l3.47,14.319Z" transform="translate(139.713 650.194)"/><path class="o" d="M1.164-.33l4.25,2.592,1.07,7.2-1.664.305L.268,4.862-.582,1.4Z" transform="translate(146.656 652.666)"/><path class="t" d="M4.639,0,5.8,2.151,0,1.086Z" transform="translate(150.161 660.557) rotate(-120)"/><path class="u" d="M13.039,1.1H24.552l7.876-3.818L24.552,7.639H13.039l-14-18.561Z" transform="translate(154.762 677.738)"/><path class="l" d="M11.594,13.442l17.075-12.3L32.419,8.9l-6.786,8.521-3.64,1.043Z" transform="translate(131.184 673.917)"/><path class="v" d="M30.609-3.476h0l.25,11.1L9.69,18.411,0,19.706Z" transform="matrix(0.454, -0.891, 0.891, 0.454, 131.922, 716.03)"/><path class="j" d="M28.05,2.8,29.8,5.424,6.024,20.3,2.788,15.671Z" transform="matrix(0.454, -0.891, 0.891, 0.454, 137.236, 715.56)"/><path class="w" d="M7.053-10.815,6.431-2.1,33.24,16.441l1.74-5.982Z" transform="translate(191.65 681.647) rotate(48)"/><path class="j" d="M1.451.347l1.647-1L24.278,12.485l-5.748,2.981Z" transform="translate(156.943 743.111) rotate(-127)"/><path class="j" d="M7.737-3.389,10.6,32.377h0L.588,1.691Z" transform="translate(152.686 690.666)"/><path class="j" d="M53.8,7.64,51.459,4.216,33.068,30.658l5.6-.607Z" transform="translate(246.306 713.959) rotate(138)"/><path class="w" d="M4.585-2.037,17.569,8.556,1.915,11.47Z" transform="translate(155.242 676.887)"/><path class="w" d="M15.586-1.924,1.915,8.537l15.394.555Z" transform="translate(171.58 676.906)"/><path class="w" d="M.336,4.43,1.768,0,20.521,9.279l3.545,4.748-2.6,3.456Z" transform="translate(151.256 743.952) rotate(-127)"/><path class="v" d="M42.55,4.58l-4.562-.8L19.9,21.864,18.72,28.433l5.439,2.593Z" transform="translate(239.833 720.149) rotate(138)"/><rect class="x" width="2.334" height="2.334" transform="translate(175.258 691.675) rotate(43)"/><rect class="x" width="2.334" height="2.334" transform="translate(175.258 702.178) rotate(43)"/><rect class="x" width="2.334" height="2.334" transform="translate(175.258 712.681) rotate(43)"/><path class="o" d="M1.93,17.364l5.536-2.478,1.292,2.119L2.88,19.98l-1.036,3.1-2.617.954-3.1-2.794L-1.319,18.4Z" transform="translate(218.935 765.295) rotate(138)"/><path class="h" d="M12.424-6.48l4.828-12.652L5.773,34.912,1.856,31.584Z" transform="translate(168 742)"/><path class="y" d="M14.987-1.163l3.86,3.7-4.958,47.58-2.252,3.258Z" transform="translate(155 774)"/><path d="M-8.193,10.281,2.651-5.951v1.066L-8.078,12.688Z" transform="translate(166 830)"/><path class="b" d="M6.754,5.938l-3.6-4.866V-.636L6.754,3Z" transform="translate(142 837)"/><path class="c" d="M1.691,2.037l9.251-.191v-2.5L1.691-.9Z" transform="translate(147 840.862)"/><path class="d" d="M-6.858,8.373,6.076-1.8,14.554-.58,5.933,12.226l-9.239-.245Z" transform="translate(152 828)"/><path class="e" d="M-9.312,11.068,3.664-2.32l4.806.687L-.068,11.229Z" transform="translate(158 829)"/><path class="o" d="M4.982,4.511,9.733,6.186l1.109-1.433L5.8,2.743,4.908.645,2.663,0,0,1.889,2.193,3.808Z" transform="matrix(0.276, 0.961, -0.961, 0.276, 152.79, 740.986)"/></g><g transform="translate(24 178)"><path class="z" d="M3.1,1.85,24.288-1.793,43.027,1.85l5.312,22L43.027,44.518,24.288,49.6,3.1,44.518l-5.65-20.673Z" transform="translate(257 673)"/><path class="aa" d="M4.646,2.283,31.619-1.793l23.86,4.076,6.764,24.611-6.764,23.13-23.86,5.69L4.646,50.025l-7.194-23.13Z" transform="translate(276.044 685.889)"/><path class="ab" d="M2.7,1.307l19.659-3.1,17.39,3.1,4.93,18.719-4.93,17.593-17.39,4.328L2.7,37.619-2.547,20.026Z" transform="translate(240.417 686)"/><path class="ac" d="M1.536.665,16.847-1.793,30.392.665,34.231,15.5,30.392,29.452,16.847,32.883,1.536,29.452-2.547,15.5Z" transform="translate(266 708.117)"/></g><g transform="translate(-2 67.965)"><path class="ad" d="M2.356,7.731,8.381-22.617,13.09,7.731V58.489L17.138,50.6l2.007-17.923v14.01L28.9,27.664,13.09,65.863v18L19.908,86H-2.565l4.92-2.362V72.658l-4.92-16.5,4.92,11.3V38.581L-6.892-16.341,2.356,30.477Z" transform="translate(72.82 690.365)"/><path class="ae" d="M4.718,1.858,31.959-1.793l24.1,3.651L62.887,23.9,56.056,44.62l-24.1,5.1L4.718,44.62-2.547,23.9Z" transform="translate(26 666.096)"/><path class="z" d="M4.146,2.918l25.1-4.71,22.2,4.71,6.293,28.444L51.441,58.1l-22.2,6.576L4.146,58.1-2.547,31.362Z" transform="translate(48.811 621)"/><path class="aa" d="M4.057,2.327l24.762-4.12,21.9,4.12,6.209,24.881L50.724,50.592l-21.9,5.752L4.057,50.592l-6.6-23.384Z" transform="translate(68.997 649.271)"/><path class="ac" d="M.8.221,13.347-1.793,24.447.221l3.146,12.162-3.146,11.43-11.1,2.812L.8,23.813l-3.347-11.43Z" transform="translate(54.178 729.844)"/><path class="ab" d="M1.26.458,15.533-1.793,28.16.458l3.579,13.591L28.16,26.823,15.533,29.965,1.26,26.823-2.547,14.049Z" transform="translate(48.811 670.647)"/><path class="ab" d="M1.26.458,15.533-1.793,28.16.458l3.579,13.591L28.16,26.823,15.533,29.965,1.26,26.823-2.547,14.049Z" transform="translate(83.698 701.509)"/><path class="af" d="M-.3-.44,8.145-1.793,15.612-.44l2.117,8.169-2.117,7.678L8.145,17.3-.3,15.407-2.547,7.729Z" transform="translate(36.734 673.424)"/><path class="af" d="M-.3-.44,8.145-1.793,15.612-.44l2.117,8.169-2.117,7.678L8.145,17.3-.3,15.407-2.547,7.729Z" transform="translate(97.116 721.729)"/></g><g transform="translate(23 -3)"><g transform="translate(0 74)"><path class="i" d="M-7.238-12.69-7.6-15.533l1.531-.527,4.276,5.173L-.536-7.242,6.117,3.684,9.112,22.406,6.234,24.635,1.3,5.341l-4.269-12.4L-5.8-8.52Z" transform="matrix(-0.946, -0.326, 0.326, -0.946, 243.645, 689.957)"/><path class="i" d="M7.061,31.877l6.652-10.926L16.708,2.229,13.831,0,8.9,19.294,4.63,31.692Z" transform="translate(256.801 665.137) rotate(-19)"/><g transform="translate(26 55)"><path class="g" d="M0,.016,15.36-.067l2.592,50.85L5.667,60.643Z" transform="translate(229.968 646.556)"/><path class="ag" d="M6.319.291,11.367-.3l5.11-.951h13.3L34.29.291l3.628.518.756,9.732L31.828,22.977l4.556,20.489-11.3,2.675L26.66,104.1,0,100.2,14.032,22.977,5.717,9.809Z" transform="translate(209 603.112)"/><g transform="translate(213.675 569.565)"><path class="ah" d="M2.656,7.884,11.631.565H22.973l9.485,7.319-9.485,11.45H11.631Z" transform="translate(0.885 -0.565)"/><path class="ai" d="M4.247,10.871,13.833-.679l2.2,7.607v8.451L4.247,29.555Z" transform="translate(19.539 8.029)"/><path class="ai" d="M16.93,10.735,7.974-.68,4.329,6.981l.574,8.6L16.93,29.41Z" transform="translate(-4.329 8.029)"/><path class="aj" d="M6.021.565H17.363V19.334H6.021Z" transform="translate(6.495 18.105)"/><path class="ak" d="M2.656,9.747,9.829.565h9.065l7.581,9.183L18.894,24.113H9.829Z" transform="translate(3.367 27.443)"/><path class="al" d="M2.656,8.49,8.847.565h7.824L23.214,8.49l-6.543,12.4H8.847Z" transform="translate(4.877 34.445)"/><path class="am" d="M2.656,7.458,8.041.565h6.805l5.691,6.893L14.846,18.243H8.041Z" transform="translate(5.804 41.447)"/><path class="an" d="M2.656,6.3,7.137.565H12.8L17.534,6.3,12.8,15.273H7.137Z" transform="translate(7.057 50.199)"/><path class="an" d="M2.656,4.091,4.892.565H7.717L10.08,4.091,5.922,16.357Z" transform="translate(10.558 71.205)"/><path class="ao" d="M2.656,5.22,6.293.565h4.6L14.731,5.22,10.888,12.5h-4.6Z" transform="translate(8.109 58.952)"/><path class="ap" d="M-.714,0H4.74" transform="translate(14.71 71.656)"/></g></g><path class="aq" d="M2.5,0,5,8H0Z" transform="matrix(0.485, 0.875, -0.875, 0.485, 254.786, 620.874)"/><path class="aq" d="M2.5,0,5,8H0Z" transform="translate(240.359 637.203) rotate(-121)"/><path class="aq" d="M2.5,0,5,8H0Z" transform="translate(247.191 639.404) rotate(-169)"/><rect class="j" width="8" height="8" transform="translate(243 624)"/><rect class="ar" width="4" height="4" transform="translate(244 624)"/><path class="as" d="M3.319,3.626l2.144-.579.563,2.12L5.81,7.4l1.513,2.65-.645,3.177L4.17,14.534,2.289,11.411l.2-5.289Z" transform="matrix(-0.966, -0.259, 0.259, -0.966, 274.549, 706.542)"/></g><g transform="translate(3 75)"><path class="at" d="M1.676.019,7.994,0,9.308,3.4,7.83,5.881l-2.947.133L1.5,5.846,0,3.149Z" transform="translate(243.527 759.001) rotate(8)"/><path class="i" d="M0,.154,4.864,0,3.8,3.357,1.3,3.406Z" transform="matrix(0.985, 0.174, -0.174, 0.985, 245.837, 759.161)"/><path class="au" d="M1.528,2.726,0,0,1.838,2.435l1.2.271,2.274.074,1.121-.031L7.79,2.281,9.322.23,7.856,2.746,6.019,3.5l-2.88-.091Z" transform="translate(243.089 762.09) rotate(8)"/></g></g></g></svg>