<svg xmlns="http://www.w3.org/2000/svg" width="375" height="360.092" viewBox="0 0 375 360.092"><defs><style>.a{fill:#43a4ae;}.b{fill:#3b3a3a;}.c{fill:#514f4f;}.d{fill:#432e21;}.e{fill:#5d4230;}.f{fill:#264f53;}.g{fill:#549299;}.h{fill:#3a6b70;}.i{fill:#e8c2aa;}.j{fill:#8a9948;}.k{fill:#9faf56;}.l{fill:#a6b75d;}.m{fill:#efccb6;}.n{fill:#efd5c5;}.o{fill:#8b705f;}.p{fill:#3c3434;}.q{fill:#695142;}.r{fill:#826857;}.s{fill:#847165;}.t{fill:#e4bda4;}.u{fill:#afc064;}.v{fill:#58401e;}.w{fill:#183c40;}.ac,.x,.z{fill:#fff;}.y{fill:#c4ebef;}.au,.z{stroke:#574d46;}.aa{fill:#abbc5f;}.ab{fill:#0e2e31;}.ac{opacity:0.2;}.ad{fill:#574d46;}.ae{fill:#ecb159;}.af{fill:#cd984a;}.ag{fill:#e3d3bb;}.ah{fill:#e8d8c0;}.ai{fill:#f6e7d1;}.aj{fill:#f0e0c9;}.ak{fill:#fcf2e2;}.al{fill:#f2e3ce;}.am{fill:#f7e8d4;}.an{fill:#fdf1e0;}.ao,.au,.bb{fill:none;}.ao{stroke:#367a7a;}.ap{fill:#6f7e30;}.aq{fill:#ca8a2a;}.ar{fill:#dc9c3d;}.as{fill:#e7cdbc;}.at{fill:#513421;}.av{fill:#16565d;}.aw{fill:#4f6126;}.ax{fill:#667f2e;}.ay{fill:#83a23d;}.az{fill:#a2be61;}.ba{stroke:none;}</style></defs><g transform="translate(0 -930.748)"><path class="a" d="M375-11.419,243.1,35.59,106.534-7.3,0,10.816V222.991l157.569,51.847,143.04-40.268L375,260.219Z" transform="translate(0 942.167)"/><g transform="translate(5 33)"><path d="M0,9.47,4.121.82,4.58,1.7.07,10.936Z" transform="translate(291.769 1221.144) rotate(-4)"/><path class="b" d="M2.192,4,0,1.04V0L2.191,2.213Z" transform="translate(284.576 1228.749) rotate(-4)"/><path class="c" d="M0,1.792l5.635-.117V.152L0,0Z" transform="translate(286.877 1230.782) rotate(-4)"/><path class="d" d="M0,6.194,7.878,0l4.14.246-4.227,8.3L2.164,8.392Z" transform="translate(284.136 1222.576) rotate(-4)"/><path class="e" d="M0,8.155,7.9,0,9.757.348l-4.126,7.9Z" transform="translate(286.311 1222.714) rotate(-4)"/><path class="f" d="M8.167-.98,20.191.416l-.683,69.223-3.958-.433Z" transform="translate(276.615 1152.88)"/><path class="g" d="M8.2,2.923,19.914,0l-1,4.9L10.931,45.637.486,49.027Z" transform="translate(284.197 1150.828)"/><path class="h" d="M0,5.053,10.387,0,11.56,6.52,11.7,47.9l-7.767-.388Z" transform="translate(284.865 1194.736) rotate(2)"/><path class="i" d="M0,16.151,6.292,18.8l5.09-9.712L12.477,3.1,7.971,0Z" transform="translate(270.301 1061.193) rotate(150)"/><path class="i" d="M0,.873,4.951,0l.982,4.38L.724,3.547Z" transform="translate(264.222 1068.099) rotate(175)"/><path class="j" d="M1.962,0,0,7.95,24.085,18.689l2.049-1.534Z" transform="translate(312.887 1116.099) rotate(48)"/><path class="k" d="M2.274-1.477.588,27.9l.141,4.03L13.154,1.107Z" transform="translate(303.274 1119.935)"/><path class="l" d="M24.862,3.249,5.435-3.767,10.3,10.4H21.205Z" transform="translate(295.204 1110.684)"/><path class="l" d="M11.591-3.105H29.6L22.982,29.92,11.591,32.288Z" transform="translate(281.03 1121.943)"/><path class="l" d="M24.835-3.105,13.581-1.379l2.645,31.169L24.835,32.2Z" transform="translate(267.785 1122.034)"/><path class="i" d="M0,0H5.926V3.968H0Z" transform="translate(294.052 1157.228) rotate(-115)"/><path class="m" d="M0,36.42H27.6l.107-24.082L22.1,1.385,14.637,0,4.918,2.787,0,14.2Z" transform="translate(301.793 1114.323) rotate(-164)"/><path class="n" d="M0,24.383H4.089V0H0V24.383Z" transform="translate(292.694 1099.732) rotate(-163)"/><path class="i" d="M5.971,8.823,13.949,0,0,1.959Z" transform="translate(306.985 1088.388) rotate(155)"/><path class="i" d="M1.176,9.08,10.762,0,0,.506Z" transform="translate(294.44 1081.959) rotate(110)"/><path class="n" d="M0,7.949H27.6L27.643.506l-13.07.989L.04,0Z" transform="translate(309.641 1086.955) rotate(-164)"/><path class="n" d="M.743,2.429l.895.626S5.671.04,5.16.047s-3.519,0-3.519,0L0,0Z" transform="translate(294.252 1100.224) rotate(-163)"/><path class="o" d="M2.342,1.825,8.3,2.917,0,0Z" transform="translate(294.168 1081.1) rotate(172)"/><path class="o" d="M2.354.4,8.638,0,0,2.416Z" transform="matrix(0.788, 0.616, -0.616, 0.788, 299.528, 1080.458)"/><path class="p" d="M0,.74-1.951,2.932l1.465.1.919-.013,1.542-.127,1.294.128.658.018,1.421-.088L3.436.653,2.515,0,1.143.061Z" transform="translate(291.388 1105.623) rotate(-166)"/><ellipse cx="1.022" cy="2.044" rx="1.022" ry="2.044" transform="translate(299.457 1091.59) rotate(-167)"/><ellipse cx="1.022" cy="2.044" rx="1.022" ry="2.044" transform="translate(290.448 1088.469) rotate(-172)"/><path class="i" d="M.835,33.157l3.133.6L4.051,11.4,8.906,0,0,13.567Z" transform="translate(306.375 1112.741) rotate(-164)"/><path class="q" d="M10.307,17.585,14.319,0,0,2.178Z" transform="translate(291.876 1079.53) rotate(-138)"/><path class="o" d="M13.01,27.738,25.481,14.073,9.721,0,0,2.645Z" transform="translate(322.267 1075.306) rotate(146)"/><path class="r" d="M1.7,12.115,8.476,4.628,10.743,0,0,1.041Z" transform="matrix(-1, 0.017, -0.017, -1, 322.666, 1085.21)"/><path class="o" d="M12.367-1.151,1.657.105,2.812,1.974-.227,14.517Z" transform="translate(310.296 1085.254)"/><path class="n" d="M4.079-.33.355,1.94l-.937,6.3,1.458.267L4.864,4.218l.744-3.035Z" transform="translate(311.284 1087.317)"/><path class="s" d="M4.063,1.884,5.082,0,0,.932Z" transform="translate(311.681 1093.246) rotate(-60)"/><path class="t" d="M16.024-.39H5.939L-.848-3.712,3.867,6.7l5.846,2.09L19.1,6.7l9.181-17.619Z" transform="translate(281.837 1110.592)"/><path class="j" d="M15.531-1.266l12,1.284,3.279,7.531L23.891,15.4l-3.188.914Z" transform="translate(254.453 1108.749)"/><path class="l" d="M26.811,0h0l.219,9.724L8.487,19.171,0,20.306Z" transform="matrix(-0.208, 0.978, -0.978, -0.208, 288.127, 1083.845)"/><path class="j" d="M22.128,0l1.534,2.3L2.835,15.334,0,11.275Z" transform="matrix(-0.208, 0.978, -0.978, -0.208, 277.854, 1086.693)"/><path class="u" d="M.545,0,0,7.634l23.482,16.24,1.524-5.24Z" transform="translate(319.663 1113.508) rotate(48)"/><path class="k" d="M0,.875,1.443,0,20,11.507l-5.035,2.611Z" transform="matrix(0.788, 0.616, -0.616, 0.788, 259.193, 1066.303)"/><path class="j" d="M6.85-3.389l2.51,31.328h0L.588,1.061Z" transform="translate(274.652 1123.981)"/><path class="k" d="M18.157,3,16.109,0,0,23.161l4.9-.532Z" transform="matrix(-0.899, -0.438, 0.438, -0.899, 309.081, 1160.696)"/><path class="u" d="M5.054-3.048,16.091,7.585,1.915,9.794Z" transform="translate(276.726 1111.745)"/><path class="u" d="M13.89-1.924,1.915,7.239,15.4,7.725Z" transform="translate(291.037 1111.747)"/><path class="h" d="M11.113-8.05l4.229-11.082L5.914,27.853,2.6,24.786Z" transform="matrix(0.996, -0.087, 0.087, 0.996, 290.492, 1171.201)"/><path class="u" d="M0,3.88,1.254,0,17.68,8.127l3.105,4.159L18.5,15.314Z" transform="matrix(0.788, 0.616, -0.616, 0.788, 262.694, 1064.152)"/><path class="l" d="M20.874.7l-4-.7L1.037,15.841,0,21.595l4.764,2.272Z" transform="matrix(-0.899, -0.438, 0.438, -0.899, 313.059, 1163.323)"/><rect class="v" width="2.044" height="2.044" transform="translate(294.496 1124.445) rotate(43)"/><rect class="v" width="2.044" height="2.044" transform="translate(294.496 1133.645) rotate(43)"/><rect class="v" width="2.044" height="2.044" transform="translate(294.496 1142.844) rotate(43)"/><path class="w" d="M14.571-1.163l3.381,3.242L13.61,43.755l-1.973,2.854Z" transform="translate(280.793 1197.02) rotate(-3)"/><path d="M-8.193,8.267l9.5-14.218v.934l-9.4,15.392Z" transform="translate(295.471 1245.964) rotate(-3)"/><path class="b" d="M6.308,5.122,3.156.86v-1.5L6.308,2.546Z" transform="translate(273.357 1252.603) rotate(-3)"/><path class="c" d="M1.691,1.672l8.1-.168V-.686L1.691-.9Z" transform="translate(278.091 1255.776) rotate(-3)"/><path class="d" d="M-6.858,7.111,4.471-1.8,11.9-.731,4.346,10.486l-8.092-.214Z" transform="translate(282.94 1244.35) rotate(-3)"/><path class="e" d="M-9.312,9.407,2.054-2.32l4.21.6L-1.215,9.548Z" transform="translate(288.542 1244.999) rotate(-3)"/><path class="n" d="M5.2,4.708l4.959,1.749,1.157-1.5-5.265-2.1L5.123.673,2.779,0,0,1.971l2.289,2Z" transform="translate(261.703 1065.52) rotate(-121)"/><path class="i" d="M.92,0,5.448.565,5.011,2.508l-.13,3.776L6.6,10.8l-.442,1.87L1.718,14.94.338,12.754,0,7.133Z" transform="translate(281.336 1159.178) rotate(-97)"/><path d="M-.254.934,19,0l-.188,1.222L-.027,2.783Z" transform="translate(275.254 1150.853) rotate(7)"/><path class="n" d="M5.085,2.171,9.934,0l1.132,1.856L5.917,4.461,5.01,7.179l-2.292.836L0,5.568,2.239,3.081Z" transform="matrix(-0.899, -0.438, 0.438, -0.899, 291.59, 1161.097)"/><path class="x" d="M-1.816-.29.993,0,4.071-.318,1.928.945,0,1Z" transform="translate(289.166 1102.652) rotate(14)"/></g><path class="y" d="M0,0H4.529L8.245,4.794v43.1L4.529,53.761,0,54.945Z" transform="translate(48.122 1232.122) rotate(-90)"/><g transform="translate(4 32)"><g class="z" transform="translate(83 1244)"><rect class="ba" width="7" height="2"/><rect class="bb" x="0.5" y="0.5" width="6" height="1"/></g><g transform="translate(-150 482)"><path class="i" d="M0,1.307,6.967,0,5.437,28.426l-3.568.416Z" transform="matrix(0.985, 0.174, -0.174, 0.985, 259.742, 734.686)"/><path class="aa" d="M2.23.81l3.6.015L8.257,2.51l8.989,2.237.671,2.565L1.58,6.95.813,4.872.632,3.582Z" transform="translate(254.527 762.001) rotate(8)"/><path class="ab" d="M.554-.453.14-3.4l.79,2,16.3.641.059.422Z" transform="translate(254.089 770.09) rotate(8)"/><g transform="translate(-18)"><path class="i" d="M0,1.471,7.837,0,6.115,31.975,2.1,32.444Z" transform="matrix(0.985, 0.174, -0.174, 0.985, 260.442, 734.686)"/><path class="aa" d="M1.8,0,5.852.017l2.725,1.9L18.689,4.429l.755,2.886L1.066,6.906.2,4.569,0,3.118Z" transform="translate(255.152 766.412) rotate(8)"/><path class="ab" d="M.466,3.315,0,0,.889,2.247l18.332.721.067.475Z" transform="translate(254.771 770.745) rotate(8)"/></g></g><path class="t" d="M9.713-1.975,3.867-10.09,6.519,4.8,3.867,6.7l5.846,2.09,9.53,2.708,8.285-8.948H18.411L23.55-9.05Z" transform="translate(60.837 1128.592)"/><path class="m" d="M0,0H27.6l.107,24.082L21.04,33.854l-4.566.737L7,31.02l-10.1-7.931Z" transform="translate(60.962 1094.551) rotate(1)"/><path d="M-.254.934l37.8-3.576L34.925.339-.027,2.783Z" transform="matrix(0.998, 0.07, -0.07, 0.998, 104.134, 1172.335)"/><path d="M-.254.934,37.359-2.847l-1.6,2.1L1.5,2.709Z" transform="translate(150.558 1135.995) rotate(108)"/><path class="ac" d="M-4.731-.97,38.2-.624,29.887,10.92,2.75,10.8Z" transform="matrix(0.208, -0.978, 0.978, 0.208, 129.465, 1169.893)"/><path class="ac" d="M-4.731-.97l27.653.345L17.566,10.92.087,10.8Z" transform="matrix(0.996, 0.087, -0.087, 0.996, 278.683, 1141.35)"/><path class="i" d="M.531,4.993,0,.781,2.268,0,8.6,7.666l1.859,5.4,9.857,16.19L24.758,57l-4.264,3.3L13.187,31.711,6.861,13.34l-4.2-2.168Z" transform="translate(94.12 1071.969) rotate(25)"/><rect class="ad" width="3.171" height="41.249" transform="translate(85.093 1203.751)"/><path class="ad" d="M-.19.022,71.642,0V3.066L-.19,3.053Z" transform="translate(44.358 1199.686)"/><path class="ae" d="M12.075,2.707h5.009L19.7,4.375l6.883,1.453,7.048-1.453,5.952-5.608,1.109-6.449,3.225-1.44,5.009,1.44v4.754L44.677,7.014l-.765,4.894-5.06,17.044,1.836,13.509,29.53,8.285,9.726,28.831L60.907,93.128,36.461,105.448H11.627l-7.844-6.16L22.5,28.952,7.514,13.285Z" transform="translate(47.634 1130.426)"/><path class="i" d="M8,13.381l6.028-.709L16.5,19.851l5.441,34.016-6.908-7.712-5.3-25.029L-13.375,36.985l-2.28-3.318Z" transform="translate(60.576 1198.806) rotate(-161)"/><path class="n" d="M5.2,1.749,10.159,0l1.157,1.5-5.265,2.1L5.123,5.783l-2.344.673L0,4.485l2.289-2Z" transform="translate(89.661 1084.307) rotate(-71)"/><path class="af" d="M5.208-8.9,28.521,2.7,33.16,31.464,9.085,43.841Z" transform="translate(75.193 1191.898)"/><path class="n" d="M0,20.21H3.389V0H0V20.21Z" transform="translate(80.883 1118.878) rotate(172)"/><path class="i" d="M5.971,0l7.979,8.823L0,6.864Z" transform="translate(69.899 1101.248) rotate(33)"/><path class="i" d="M1.176,0l9.586,9.08L0,8.575Z" transform="matrix(0.208, 0.978, -0.978, 0.208, 87.294, 1102.14)"/><ellipse cx="1.022" cy="2.044" rx="1.022" ry="2.044" transform="translate(71.747 1108.793) rotate(-5)"/><ellipse cx="1.022" cy="2.044" rx="1.022" ry="2.044" transform="translate(81.458 1106.94)"/><path class="n" d="M-1.319,6.121l24.2.468L22.913.42,12.08,1.239-.321-.176Z" transform="translate(88.138 1103.343) rotate(171)"/><path class="o" d="M2.354.4,8.638,0,0,2.416Z" transform="translate(79.111 1102.201) rotate(9)"/><g transform="translate(-8.221 1090.725)"><path class="ag" d="M6.021.565H20.929v24.67H6.021Z" transform="translate(55.429 5.974)"/><path class="ah" d="M2.656,12.634,12.084.565H24V15.226H18.745l-6.661,16.29Z" transform="translate(54.26 15.248)"/><path class="ai" d="M2.656,10.184l11.8-9.62H29.359l12.467,9.62-8.251,3.557L28.1,23.93l-13.652,1.3Z" transform="translate(58.998 -3.565)"/><path class="aj" d="M2.656,10.982,10.794.565H21.077L23.656,11.94l-6.619-.958-6.244,16.3Z" transform="translate(54.245 24.451)"/><path class="ak" d="M4.62.135l13.6-1.108-9.3,12.212H-4.995Z" transform="translate(69.017 21.34)"/><path class="al" d="M2.656,9.625,9.734.565h8.944l2.5,10.418-7.523,4.639L9.734,23.8Z" transform="translate(56.463 34.654)"/><path class="am" d="M2.656,8.1,8.545.565h7.442L18.871,11.7l-7.523,3.314L8.545,19.9Z" transform="translate(58.11 44.157)"/><path class="an" d="M2.656,6.683,7.436.565h6.04l2.559,6.814L10.617,9.865l.779,4.523-3.96,1.867Z" transform="translate(61.493 54.661)"/><path class="am" d="M2.656,5.2,5.595.565H9.308L12.414,5.2,6.949,21.321Z" transform="translate(62.712 67.767)"/><path class="ao" d="M-.714,0H6.454" transform="translate(67.11 69.182)"/></g><path class="ap" d="M3.286,0,6.572,10.515H0Z" transform="matrix(0.485, 0.875, -0.875, 0.485, 81.641, 1091.874)"/><path class="ap" d="M3.286,0,6.572,10.515H0Z" transform="translate(62.678 1113.336) rotate(-121)"/><path class="ap" d="M3.286,0,6.572,10.515H0Z" transform="translate(71.658 1116.229) rotate(-169)"/><rect class="aq" width="10.515" height="10.515" transform="translate(66.149 1095.983)"/><rect class="ar" width="5.257" height="5.257" transform="translate(67.464 1095.983)"/><path class="as" d="M1.353.762,4.171,0l.74,2.787L4.628,5.723,6.616,9.205l-.847,4.175L2.472,15.1,0,10.993.268,4.042Z" transform="translate(96.757 1162.307) rotate(73)"/><rect class="at" width="99" height="7" transform="translate(94 1175)"/><rect class="ad" width="3" height="57" transform="translate(142 1182)"/><line class="au" y1="11" transform="translate(143.5 1238.5)"/><line class="au" x2="10" y2="10" transform="translate(144.5 1238.5)"/><line class="au" x1="10" y2="10" transform="translate(132.5 1238.5)"/><g class="z" transform="translate(127 1247)"><rect class="ba" width="7" height="2"/><rect class="bb" x="0.5" y="0.5" width="6" height="1"/></g><g class="z" transform="translate(140 1249)"><rect class="ba" width="7" height="2"/><rect class="bb" x="0.5" y="0.5" width="6" height="1"/></g><g class="z" transform="translate(153 1247)"><rect class="ba" width="7" height="2"/><rect class="bb" x="0.5" y="0.5" width="6" height="1"/></g><g class="z" transform="translate(39 1243)"><rect class="ba" width="7" height="2"/><rect class="bb" x="0.5" y="0.5" width="6" height="1"/></g><path class="p" d="M1.951,2.3,0,.108l1.465-.1.919.013L3.926.146,5.22.018,5.878,0,7.3.088l-1.913,2.3-.92.653L3.094,2.979Z" transform="translate(75.198 1123.146) rotate(-14)"/><path class="x" d="M0,1.29,2.809,1l3.077.316L3.745.055,1.816,0Z" transform="translate(82.053 1123.183) rotate(166)"/><path class="av" d="M0,0H20.988L15.22,14.818H5.98Z" transform="translate(159 1160.182)"/><rect class="ad" width="3.171" height="103.249" transform="translate(41.093 1140.751)"/></g><g transform="matrix(0.966, -0.259, 0.259, 0.966, -252.329, 590.225)"><path class="aw" d="M-.476-.457,7.292-1.793,14.163-.457l1.948,8.065-1.948,7.58L7.292,17.053-.476,15.188l-2.072-7.58Z" transform="matrix(0.978, 0.208, -0.208, 0.978, 248.232, 671.757)"/><path class="ax" d="M.09-.3,9.98-1.793,18.729-.3l2.48,9.024-2.48,8.481L9.98,19.293.09,17.207-2.547,8.726Z" transform="translate(258.052 674.603) rotate(25)"/><path class="ay" d="M-.625-.656,6.583-1.793,12.96-.656l1.808,6.864L12.96,12.658,6.583,14.245-.625,12.658-2.547,6.207Z" transform="translate(240.417 677.767)"/><path class="az" d="M-1.05-.892l5.614-.9,4.966.9L10.938,4.55,9.53,9.663,4.564,10.921-1.05,9.663l-1.5-5.114Z" transform="matrix(0.966, 0.259, -0.259, 0.966, 251.121, 684.946)"/></g><path class="y" d="M0,0H4.529L8.245,2.618v23.53L4.529,29.354,0,30Z" transform="translate(48 1174)"/></g></svg>