<svg xmlns="http://www.w3.org/2000/svg" width="78.177" height="78.177" viewBox="0 0 78.177 78.177"><defs><style>.a{fill:#fff;opacity:0.5;}</style></defs><path class="a" d="M39.088,8A39.088,39.088,0,1,0,78.176,47.088,39.082,39.082,0,0,0,39.088,8ZM23.957,40.563l-4.524,4.524c-2.333,2.333-5.958-1.182-3.562-3.562L20.4,37l-4.524-4.524c-2.364-2.364,1.214-5.926,3.562-3.562l4.524,4.524,4.524-4.524c2.364-2.364,5.926,1.214,3.562,3.562L27.519,37l4.524,4.524c2.4,2.4-1.245,5.895-3.562,3.562ZM39.088,72.306A10.087,10.087,0,1,1,49.176,62.219,10.1,10.1,0,0,1,39.088,72.306ZM62.3,41.524c2.4,2.4-1.245,5.895-3.562,3.562l-4.524-4.524L49.7,45.087c-2.333,2.333-5.958-1.182-3.562-3.562L50.657,37l-4.524-4.524c-2.364-2.364,1.214-5.926,3.562-3.562l4.524,4.524,4.524-4.524c2.364-2.364,5.926,1.214,3.562,3.562L57.781,37,62.3,41.524Z" transform="translate(0 -8)"/></svg>