<svg xmlns="http://www.w3.org/2000/svg" width="848.82" height="724.062" viewBox="0 0 848.82 724.062"><defs><style>.a{fill:#fff;opacity:0.3;}</style></defs><path class="a" d="M660.053,384.334,846.7,662.925a14.307,14.307,0,0,1-10.486,21.7L467.938,724.062,660.053,384.334Zm12.874-88L531.581,40.889c-7.675-12.617,6.348-27.253,19.063-19.908L817.331,197.207a7.2,7.2,0,0,1-.23,12.117ZM424.419,314.53H231.3L400.316,13.618a28.139,28.139,0,0,1,48.206,0L617.541,314.53ZM175.911,296.337,31.737,209.305a7.194,7.194,0,0,1-.23-12.117L298.193,20.981c12.715-7.345,26.738,7.291,19.063,19.908Zm12.874,88,192.1,339.728L12.6,684.62a14.311,14.311,0,0,1-10.486-21.7L188.785,384.334Zm235.634-12.617h177.6L424.419,685.8l-177.6-314.083Z" transform="translate(0)"/></svg>