<svg xmlns="http://www.w3.org/2000/svg" width="32.881" height="31.236" fill="rgba(67, 164, 174, 1)" viewBox="0 0 32.881 31.236"><path d="M19.69,7.776H13.55v2.262a2.908,2.908,0,0,1-5.817,0V5.126L5.112,6.7A2.58,2.58,0,0,0,3.856,8.915v1.911L.624,12.692a1.289,1.289,0,0,0-.473,1.765l3.231,5.6a1.293,1.293,0,0,0,1.765.473l4.177-2.411h5.518a2.588,2.588,0,0,0,2.585-2.585h.646a1.291,1.291,0,0,0,1.293-1.293V11.654h.323a.967.967,0,0,0,.969-.969V8.746A.967.967,0,0,0,19.69,7.776Zm5.966-1.511L22.424.667A1.293,1.293,0,0,0,20.659.194L16.482,2.606H12.354A2.6,2.6,0,0,0,10.985,3l-1.353.844a1.284,1.284,0,0,0-.606,1.095v5.1a1.616,1.616,0,0,0,3.231,0V6.484H19.69a2.263,2.263,0,0,1,2.262,2.262V9.9l3.231-1.866A1.294,1.294,0,0,0,25.656,6.265Z" transform="matrix(0.848, 0.53, -0.53, 0.848, 10.989, -0.006)"/></svg>